# xmcd
#
# Track frame offsets:
# 150
# 17368
# 34660
# 46472
# 59342
# 72828
# 86880
# 103189
# 113349
# 126532
# 143271
# 157263
# 172178
# 184014
#
# Disc length: 2597 seconds
#
#
# Revision: 2
# Processed by: cddbd v1.5.2PL0 Copyright (c) Steve Scherf et al.
# Submitted via: FreeRIP 2.80 
#
DISCID=bf0a230e
DTITLE=Vários - Clima de Rodeio
DYEAR=2005
DGENRE=Sertanejo
TTITLE0=Clima de rodeio
TTITLE1=Nóis tropica, mas não cai
TTITLE2=Festa Louca
TTITLE3=Caí no laço
TTITLE4=Peão apaixonado
TTITLE5=Me dá, me dá
TTITLE6=Nóis é caubói
TTITLE7=Amor carrapicho
TTITLE8=Pinha no pinheiro
TTITLE9=Mexe que é bom
TTITLE10=Forró do limpa-banco
TTITLE11=Quebrando tudo
TTITLE12=Saudade
TTITLE13=Só pra ver peão babar
EXTD=
EXTT0=
EXTT1=
EXTT2=
EXTT3=
EXTT4=
EXTT5=
EXTT6=
EXTT7=
EXTT8=
EXTT9=
EXTT10=
EXTT11=
EXTT12=
EXTT13=
PLAYORDER=
